<svg width="280" height="96" viewBox="0 0 280 96" fill="none" xmlns="http://www.w3.org/2000/svg">
<g clip-path="url(#clip0)">
<path d="M-471 -58.2308L743 -129V377H-471V-58.2308Z" fill="#F2F2F2"/>
<path d="M557 96V95H556H281C279.895 95 279 95.8954 279 97V155V156H280H556H557V155V96Z" fill="white" stroke="#E5E5E5" stroke-width="2"/>
<path d="M280 -1H279V0V94V95H280H556H557V94V1C557 -0.104575 556.105 -1 555 -1H280Z" fill="#283645" stroke="#283645" stroke-width="2"/>
<path d="M1 96V95H0H-275C-276.105 95 -277 95.8954 -277 97V155V156H-276H0H1V155V96Z" fill="white" stroke="#E5E5E5" stroke-width="2"/>
<path d="M1 0V-1H0H-275C-276.105 -1 -277 -0.10457 -277 1V94V95H-276H0H1V94V0Z" fill="#283645" stroke="#283645" stroke-width="2"/>
<path d="M279 96V95H278H3C1.89543 95 1 95.8954 1 97V155V156H2H278H279V155V96Z" fill="white" stroke="#E5E5E5" stroke-width="2"/>
<path d="M279 0V-1H278H3C1.89543 -1 1 -0.10457 1 1V94V95H2H278H279V94V0Z" fill="#283645" stroke="#283645" stroke-width="2"/>
<rect x="278" y="-2" width="2" height="98" fill="#F2F2F2"/>
<rect y="-2" width="2" height="98" fill="#F2F2F2"/>
<path d="M74 -2L37 35L0 72V39L41 -2H74Z" fill="#D22856"/>
<path d="M27.9192 35.3147L26.9863 36.2476L21.9785 35.0392L23.1531 40.0808L22.2831 40.9509L20.9393 34.9087L15.3757 33.7244L16.2844 32.8157L20.8378 33.8598L19.8082 29.2919L20.6831 28.417L21.8384 33.9516L27.9192 35.3147ZM21.8722 27.2279L22.6408 26.4593L26.5706 30.3892C27.2956 31.1142 27.9289 31.7925 28.4702 32.4242L28.5089 32.3855L26.5754 22.5247L27.4745 21.6256L34.5414 28.6925L33.768 29.4659L29.8769 25.5748C29.2291 24.927 28.5766 24.2197 27.9192 23.4527L27.8757 23.4962L29.8382 33.3957L28.9391 34.2948L21.8722 27.2279ZM38.6549 24.579L37.8332 25.4007L31.4962 19.0637L29.2581 21.3017L28.5283 20.5718L33.826 15.2741L34.5559 16.004L32.3179 18.242L38.6549 24.579Z" fill="white"/>
</g>
<defs>
<clipPath id="clip0">
<rect width="320" height="3713" fill="white" transform="translate(-20 -2441)"/>
</clipPath>
</defs>
</svg>
